<svg width="315" height="103" viewBox="0 0 315 103" fill="none" xmlns="http://www.w3.org/2000/svg">
<path d="M97.4721 60.88C96.7681 61.392 96.2881 61.648 96.0321 61.648C95.0721 61.648 94.1761 60.912 93.3441 59.44C92.4481 58.032 92.0001 56.624 92.0001 55.216C92.0001 54.7979 92.1067 54.4652 92.3201 54.2178C92.4166 54.106 92.5249 54.0042 92.6275 53.898C92.9203 53.5951 93.4151 53.2025 94.1121 52.72C99.4881 49.136 104.096 45.296 107.936 41.2C111.776 37.04 114.72 32.816 116.768 28.528C118.707 24.4082 119.699 20.4605 119.745 16.6848C119.75 16.2704 119.611 15.8699 119.375 15.5294C118.794 14.6911 118.213 13.744 117.632 12.688C116.992 11.344 116.448 9.99999 116 8.65599C115.731 7.71307 115.556 6.88042 115.475 6.15801C115.414 5.60993 115.645 5.07153 116.088 4.74406C117.139 3.96887 118.549 3.32085 120.32 2.8C121.991 2.30866 123.529 2.04364 124.936 2.00496C125.696 1.98406 126.364 2.47523 126.604 3.19692C127.22 5.05578 127.685 7.32346 128 9.99999C128.292 12.9585 128.224 14.7678 128 18.064C127.36 26.256 124.448 33.936 119.264 41.104C114.08 48.208 106.816 54.8 97.4721 60.88Z" fill="black"/>
<path d="M35.0917 54.198C34.1957 54.198 33.4597 53.814 32.8837 53.046C32.3077 52.278 32.0197 51.318 32.0197 50.166C32.0197 47.414 33.1717 46.038 35.4757 46.038C43.2197 46.038 49.2677 43.19 53.6197 37.494C55.4117 35.126 56.7877 32.406 57.7477 29.334C58.7077 26.262 59.1877 23.094 59.1877 19.83C59.1877 18.742 59.1237 17.654 58.9957 16.566C58.9455 15.7117 58.8557 14.9955 58.7266 14.4174C58.6608 14.1231 58.5036 13.8605 58.3101 13.6292C57.7066 12.9082 57.1032 11.9992 56.4997 10.902C55.7957 9.62199 55.2197 8.34199 54.7717 7.06199C54.4668 5.99495 54.283 5.04894 54.2202 4.22395C54.1896 3.82205 54.3102 3.42186 54.5714 3.11485C55.4103 2.12865 56.6291 1.33236 58.2277 0.725991C59.7471 0.149669 61.2022 -0.0835186 62.5929 0.0264174C63.1771 0.0725969 63.6787 0.441227 63.9445 0.963477C64.6855 2.41925 65.3282 4.0881 65.8724 5.97003C66.0822 6.69521 66.6598 7.26391 67.4011 7.40652C70.8645 8.07283 74.6867 8.40598 78.8677 8.40598C81.6197 8.40598 84.4037 8.27799 87.2197 8.02199C89.7412 7.79276 91.8265 7.48657 93.4757 7.1034C93.8429 7.01809 94.2291 7.02 94.5784 7.16185C95.7345 7.63138 96.6736 8.36608 97.3957 9.36598C98.1463 10.3311 98.6724 11.4533 98.9738 12.7328C99.0883 13.2186 98.9717 13.7252 98.6976 14.1423L85.4498 34.2984C84.7561 35.3539 85.7647 36.822 87.0277 36.822C90.6757 36.822 93.8117 38.294 96.4357 41.238C99.0597 44.182 101.076 48.342 102.484 53.718C103.892 59.158 104.596 65.654 104.596 73.206C104.596 83.126 103.156 90.422 100.276 95.094C97.4597 99.83 92.9477 102.198 86.7397 102.198C82.3237 102.198 78.7077 100.694 75.8917 97.686C73.0757 94.742 71.6677 90.902 71.6677 86.166C71.6677 80.278 73.5237 74.294 77.2357 68.214C80.7389 62.5364 85.6387 57.0868 91.935 51.8653C92.609 51.3063 92.8695 50.3713 92.4805 49.5868C90.8312 46.2609 88.5016 44.598 85.4917 44.598C83.8277 44.598 82.2277 45.142 80.6917 46.23C79.1557 47.254 77.4597 49.014 75.6037 51.51L74.6421 52.8456C74.1767 53.4919 73.3663 53.8163 72.6134 53.5569C71.61 53.2112 70.6547 52.7209 69.7477 52.086C68.8072 51.4276 68.0741 50.6829 67.5482 49.8518C67.1951 49.2938 67.2736 48.5861 67.6312 48.031L86.0763 19.4035C86.975 18.0088 85.8821 16.1844 84.2273 16.3057C83.9169 16.3285 83.6023 16.3512 83.2837 16.374C81.4917 16.438 80.0837 16.47 79.0597 16.47C75.6918 16.47 72.7036 16.3253 70.0952 16.0359C68.827 15.8952 67.7012 16.9069 67.7227 18.1827C67.7287 18.5428 67.7317 18.8999 67.7317 19.254C67.7317 23.862 67.0277 28.31 65.6197 32.598C64.2757 36.822 62.3237 40.47 59.7637 43.542C53.9397 50.646 45.7157 54.198 35.0917 54.198ZM80.1157 85.206C80.1157 87.958 80.7237 90.134 81.9397 91.734C83.2197 93.334 84.9477 94.134 87.1237 94.134C90.2597 94.134 92.4677 92.502 93.7477 89.238C95.0917 86.038 95.7637 80.662 95.7637 73.11C95.7637 69.511 95.6584 66.2732 95.4477 63.3967C95.3309 61.8021 93.4703 61.0774 92.3115 62.1788C84.181 69.9067 80.1157 77.5824 80.1157 85.206Z" fill="black"/>
<path d="M236.072 54.1979C235.176 54.1979 234.44 53.8139 233.864 53.0459C233.288 52.2779 233 51.3179 233 50.1659C233 47.4139 234.152 46.0379 236.456 46.0379C244.2 46.0379 250.248 43.1899 254.6 37.4939C256.392 35.1259 257.768 32.4059 258.728 29.3339C259.688 26.2619 260.168 23.0939 260.168 19.8299C260.168 18.7419 260.104 17.6539 259.976 16.5659L268.712 19.2539C268.712 23.8619 268.008 28.3099 266.6 32.5979C265.256 36.8219 263.304 40.4699 260.744 43.5419C254.92 50.6459 246.696 54.1979 236.072 54.1979Z" fill="black"/>
<path d="M259.121 17.138C259.418 18.0219 259.96 19.1622 260.313 19.8714C260.528 20.3031 260.901 20.6322 261.351 20.8058L266.54 22.807C267.841 23.3087 269.243 22.3589 269.26 20.9647L269.329 15.1787C269.153 12.7339 268.782 10.5685 268.215 8.68248C268.047 8.12127 267.619 7.66927 267.052 7.5199C265.703 7.1643 264.23 7.1349 262.632 7.43172C260.951 7.74402 259.61 8.31078 258.609 9.132C258.297 9.38765 258.108 9.75999 258.066 10.1609C257.981 10.9839 257.994 11.9476 258.104 13.0518C258.317 14.3911 258.656 15.7531 259.121 17.138Z" fill="black"/>
<path d="M127.036 50.2543C126.931 49.4054 126.656 48.2872 126.465 47.5675C126.341 47.1015 126.041 46.7038 125.635 46.444L121.436 43.7586C120.261 43.0074 118.698 43.6583 118.403 45.0211L117.296 50.1443C117.003 52.3981 116.937 54.4366 117.098 56.2598C117.15 56.8435 117.479 57.3727 118.007 57.6283C119.166 58.1905 120.496 58.4845 121.997 58.5104C123.581 58.5377 124.907 58.2741 125.974 57.7196C126.332 57.5337 126.592 57.2061 126.711 56.821C126.937 56.0887 127.102 55.2139 127.206 54.1966C127.26 52.927 127.204 51.6129 127.036 50.2543Z" fill="black"/>
<path d="M0.00768735 47.2759C-0.023388 46.4653 0.543831 45.7769 1.30994 45.5102C2.65406 45.0422 4.21423 44.4481 5.99045 43.728C7.70138 42.9881 9.34549 42.2316 10.9228 41.4583C11.9148 40.972 12.2926 39.7662 11.8628 38.7484C10.3159 35.085 9.54245 30.9529 9.54245 26.352C9.54245 22.384 10.2785 18.896 11.7505 15.888C13.2225 12.816 15.2705 10.416 17.8945 8.688C20.5185 6.896 23.4945 6 26.8225 6C29.6385 6 32.1345 6.672 34.3105 8.016C36.4865 9.296 38.1825 11.088 39.3985 13.392C40.6145 15.696 41.2225 18.352 41.2225 21.36C40.9851 28.48 36.2922 35.2425 27.1437 41.6474C26.0441 42.4173 25.9548 44.0281 27.1733 44.5914C28.9739 45.4238 31.1609 45.84 33.7345 45.84C34.6305 45.84 35.3345 46.224 35.8465 46.992C36.3585 47.76 36.6145 48.784 36.6145 50.064C36.6145 51.28 36.3265 52.24 35.7505 52.944C35.1745 53.648 34.3425 54 33.2545 54C29.9265 54 26.8225 53.424 23.9425 52.272C21.6816 51.2957 19.7714 50.0307 18.2119 48.4769C17.5439 47.8113 16.5282 47.5894 15.6831 48.0074C13.7385 48.9694 11.6916 49.9109 9.54245 50.832C7.40147 51.7197 5.51613 52.437 3.88643 52.9839C3.22758 53.205 2.48888 53.0617 2.03105 52.5389C1.40939 51.829 0.937188 51.036 0.614452 50.16C0.250514 49.2957 0.0482595 48.3343 0.00768735 47.2759ZM17.8945 25.584C17.8945 29.1217 18.3406 32.1938 19.2328 34.8005C19.6246 35.9452 20.9993 36.3172 21.9892 35.6217C25.442 33.1958 28.0131 31.0019 29.7025 29.04C31.6865 26.672 32.7425 24.112 32.8705 21.36C32.8705 19.056 32.2945 17.264 31.1425 15.984C30.0545 14.64 28.5185 13.968 26.5345 13.968C24.0385 13.968 21.9585 15.088 20.2945 17.328C18.6945 19.568 17.8945 22.32 17.8945 25.584Z" fill="black"/>
<path d="M116.972 53.0033C116.952 53.3209 116.931 53.6272 116.911 53.9215C116.837 55.0164 117.652 55.9722 118.745 56.064L124.509 56.5476C125.697 56.6473 126.707 55.6882 126.686 54.4962C126.345 34.7131 128.884 25.631 132.819 22.3912C136.654 19.2348 145.294 15.2562 155.526 14.3649C156.627 14.269 157.481 13.3377 157.431 12.2342L157.156 6.24053C157.105 5.13712 156.169 4.28136 155.067 4.34851C144.458 4.99465 135.092 7.02124 128.331 15.243C127.883 15.7882 126.955 15.5276 126.886 14.8252C126.593 11.8446 126.202 8.96947 125.689 6.30467C125.48 5.22004 124.407 4.54424 123.329 4.78735L117.477 6.10791C116.399 6.35101 115.725 7.41945 115.929 8.50507C117.569 17.2455 117.817 29.0604 117.581 39.2607C117.456 44.6808 117.199 49.5199 116.972 53.0033Z" fill="black"/>
<path d="M176.616 54.344C172.584 54.344 169.032 53.384 165.96 51.464C162.952 49.544 160.584 46.856 158.856 43.4C157.192 39.944 156.36 35.976 156.36 31.496C156.36 26.632 157.32 22.312 159.24 18.536C161.16 14.76 163.752 11.784 167.016 9.608C170.344 7.432 174.12 6.344 178.344 6.344C180.584 6.344 182.792 6.792 184.968 7.688C187.144 8.52 188.968 9.672 190.44 11.144V7.208C191.016 7.016 191.688 6.856 192.456 6.728C193.224 6.6 194.024 6.536 194.856 6.536C196.392 6.536 197.832 6.76 199.176 7.208V36.2C199.176 39.72 199.624 42.248 200.52 43.784C201.48 45.32 202.984 46.088 205.032 46.088C205.928 46.088 206.6 46.472 207.048 47.24C207.56 48.008 207.816 49.032 207.816 50.312C207.816 51.336 207.528 52.264 206.952 53.096C206.44 53.928 205.576 54.344 204.36 54.344C198.28 54.344 194.184 51.848 192.072 46.856C190.216 49.224 187.976 51.08 185.352 52.424C182.728 53.704 179.816 54.344 176.616 54.344ZM165.288 31.496C165.288 36.04 166.312 39.624 168.36 42.248C170.472 44.808 173.352 46.088 177 46.088C181.032 46.088 184.264 44.712 186.696 41.96C189.192 39.208 190.44 35.592 190.44 31.112V20.36C189.16 18.632 187.528 17.256 185.544 16.232C183.56 15.144 181.512 14.6 179.4 14.6C176.648 14.6 174.216 15.336 172.104 16.808C169.992 18.28 168.328 20.296 167.112 22.856C165.896 25.352 165.288 28.232 165.288 31.496Z" fill="black"/>
<path d="M204.357 54C203.525 54 202.853 53.616 202.341 52.848C201.829 52.08 201.573 51.088 201.573 49.872C201.573 47.12 202.725 45.744 205.029 45.744C206.885 45.744 208.773 45.456 210.693 44.88C212.613 44.24 214.853 43.184 217.413 41.712C214.917 37.36 213.669 32.24 213.669 26.352C213.669 22.384 214.405 18.896 215.877 15.888C217.349 12.816 219.397 10.416 222.021 8.688C224.645 6.896 227.621 6 230.949 6C233.765 6 236.261 6.672 238.437 8.016C240.613 9.296 242.309 11.088 243.525 13.392C244.741 15.696 245.349 18.352 245.349 21.36C245.349 25.456 244.133 29.2 241.701 32.592C239.333 35.984 235.301 39.664 229.605 43.632C231.653 45.104 234.405 45.84 237.861 45.84C239.717 45.84 241.573 45.584 243.429 45.072C245.285 44.56 247.077 43.856 248.805 42.96C249.765 43.664 250.469 44.72 250.917 46.128C251.429 47.472 251.685 48.784 251.685 50.064C249.573 51.28 247.333 52.24 244.965 52.944C242.597 53.648 240.101 54 237.477 54H237.381C234.309 54 231.429 53.488 228.741 52.464C226.053 51.44 223.813 50.032 222.021 48.24C215.877 52.08 209.989 54 204.357 54ZM222.021 25.584C222.021 30.64 222.917 34.672 224.709 37.68C228.869 34.8 231.941 31.984 233.925 29.232C235.973 26.48 236.997 23.856 236.997 21.36C236.997 19.056 236.421 17.264 235.269 15.984C234.181 14.64 232.645 13.968 230.661 13.968C228.165 13.968 226.085 15.088 224.421 17.328C222.821 19.568 222.021 22.32 222.021 25.584Z" fill="black"/>
<path d="M268.448 15.752C270.24 12.744 272.544 10.44 275.36 8.84C278.176 7.17599 281.312 6.34399 284.768 6.34399C289.76 6.34399 293.6 7.97599 296.288 11.24C299.04 14.504 300.416 19.08 300.416 24.968V36.2C300.416 39.72 300.864 42.248 301.76 43.784C302.72 45.32 304.224 46.088 306.272 46.088C306.976 46.088 307.744 45.928 308.576 45.608C309.408 45.288 310.272 44.808 311.168 44.168C312.256 44.68 313.152 45.576 313.856 46.856C314.56 48.072 314.88 49.288 314.816 50.504C313.792 51.656 312.48 52.584 310.88 53.288C309.28 53.992 307.552 54.344 305.696 54.344H305.6C296.32 54.344 291.68 48.648 291.68 37.256V24.968C291.68 18.056 288.96 14.6 283.52 14.6C280.704 14.6 278.208 15.72 276.032 17.96C273.92 20.2 272.256 23.304 271.04 27.272C269.888 31.24 269.312 35.848 269.312 41.096V53C268.672 53.192 267.968 53.352 267.2 53.48C266.432 53.608 265.696 53.672 264.992 53.672C263.456 53.672 262.016 53.448 260.672 53V22.376L268.448 15.752Z" fill="black"/>
</svg>
